<?xml version="1.0" encoding="UTF-8" standalone="no"?>
<!DOCTYPE svg PUBLIC "-//W3C//DTD SVG 1.1//EN"
 "http://www.w3.org/Graphics/SVG/1.1/DTD/svg11.dtd">
<!-- Generated by graphviz version 2.38.0 (20140413.2041)
 -->
<!-- Title: controllers_diagram Pages: 1 -->
<svg width="629pt" height="552pt"
 viewBox="0.00 0.00 628.60 552.00" xmlns="http://www.w3.org/2000/svg" xmlns:xlink="http://www.w3.org/1999/xlink">
<g id="graph0" class="graph" transform="scale(1 1) rotate(0) translate(224.89 344.5)">
<title>controllers_diagram</title>
<polygon fill="none" stroke="none" points="-224.89,207.5 -224.89,-344.5 403.707,-344.5 403.707,207.5 -224.89,207.5"/>
<!-- _diagram_info -->
<g id="node1" class="node"><title>_diagram_info</title>
<text text-anchor="start" x="110.312" y="144.9" font-family="Times,serif" font-size="13.00">Controllers diagram</text>
<text text-anchor="start" x="110.312" y="157.9" font-family="Times,serif" font-size="13.00">Date: Apr 06 2016 &#45; 09:03</text>
<text text-anchor="start" x="110.312" y="170.9" font-family="Times,serif" font-size="13.00">Migration version: 20160406042104</text>
<text text-anchor="start" x="110.312" y="183.9" font-family="Times,serif" font-size="13.00">Generated by RailRoady 1.4.2</text>
<text text-anchor="start" x="110.312" y="196.9" font-family="Times,serif" font-size="13.00">http://railroady.prestonlee.com</text>
</g>
<!-- ApplicationController -->
<g id="node2" class="node"><title>ApplicationController</title>
<path fill="none" stroke="black" d="M-55.5898,-171C-55.5898,-171 61.5898,-171 61.5898,-171 67.5898,-171 73.5898,-177 73.5898,-183 73.5898,-183 73.5898,-319 73.5898,-319 73.5898,-325 67.5898,-331 61.5898,-331 61.5898,-331 -55.5898,-331 -55.5898,-331 -61.5898,-331 -67.5898,-325 -67.5898,-319 -67.5898,-319 -67.5898,-183 -67.5898,-183 -67.5898,-177 -61.5898,-171 -55.5898,-171"/>
<text text-anchor="middle" x="3" y="-315.8" font-family="Times,serif" font-size="14.00">ApplicationController</text>
<polyline fill="none" stroke="black" points="-67.5898,-309 73.5898,-309 "/>
<text text-anchor="start" x="-59.5898" y="-293.8" font-family="Times,serif" font-size="14.00">authorize</text>
<text text-anchor="start" x="-59.5898" y="-279.8" font-family="Times,serif" font-size="14.00">authorize_with_guest</text>
<text text-anchor="start" x="-59.5898" y="-265.8" font-family="Times,serif" font-size="14.00">current_or_guest_user</text>
<text text-anchor="start" x="-59.5898" y="-251.8" font-family="Times,serif" font-size="14.00">guest_user</text>
<polyline fill="none" stroke="black" points="-67.5898,-245 73.5898,-245 "/>
<polyline fill="none" stroke="black" points="-67.5898,-221 73.5898,-221 "/>
<text text-anchor="start" x="-59.5898" y="-205.8" font-family="Times,serif" font-size="14.00">_layout</text>
<text text-anchor="start" x="-59.5898" y="-191.8" font-family="Times,serif" font-size="14.00">create_guest_user</text>
<text text-anchor="start" x="-59.5898" y="-177.8" font-family="Times,serif" font-size="14.00">logging_in</text>
</g>
<!-- EmberFrontendController -->
<g id="node3" class="node"><title>EmberFrontendController</title>
<path fill="none" stroke="black" d="M250.293,101C250.293,101 387.707,101 387.707,101 393.707,101 399.707,95 399.707,89 399.707,89 399.707,23 399.707,23 399.707,17 393.707,11 387.707,11 387.707,11 250.293,11 250.293,11 244.293,11 238.293,17 238.293,23 238.293,23 238.293,89 238.293,89 238.293,95 244.293,101 250.293,101"/>
<text text-anchor="middle" x="319" y="26.2" font-family="Times,serif" font-size="14.00">EmberFrontendController</text>
<polyline fill="none" stroke="black" points="238.293,33 399.707,33 "/>
<text text-anchor="start" x="246.293" y="48.2" font-family="Times,serif" font-size="14.00">index</text>
<polyline fill="none" stroke="black" points="238.293,55 399.707,55 "/>
<polyline fill="none" stroke="black" points="238.293,79 399.707,79 "/>
<text text-anchor="start" x="246.293" y="94.2" font-family="Times,serif" font-size="14.00">_layout</text>
</g>
<!-- RatingsController -->
<g id="node4" class="node"><title>RatingsController</title>
<path fill="none" stroke="black" d="M250.462,-18C250.462,-18 343.538,-18 343.538,-18 349.538,-18 355.538,-24 355.538,-30 355.538,-30 355.538,-96 355.538,-96 355.538,-102 349.538,-108 343.538,-108 343.538,-108 250.462,-108 250.462,-108 244.462,-108 238.462,-102 238.462,-96 238.462,-96 238.462,-30 238.462,-30 238.462,-24 244.462,-18 250.462,-18"/>
<text text-anchor="middle" x="297" y="-92.8" font-family="Times,serif" font-size="14.00">RatingsController</text>
<polyline fill="none" stroke="black" points="238.462,-86 355.538,-86 "/>
<text text-anchor="start" x="246.462" y="-70.8" font-family="Times,serif" font-size="14.00">permitted_params</text>
<polyline fill="none" stroke="black" points="238.462,-64 355.538,-64 "/>
<polyline fill="none" stroke="black" points="238.462,-40 355.538,-40 "/>
<text text-anchor="start" x="246.462" y="-24.8" font-family="Times,serif" font-size="14.00">_layout</text>
</g>
<!-- SessionsController -->
<g id="node5" class="node"><title>SessionsController</title>
<path fill="none" stroke="black" d="M-208.89,-222C-208.89,-222 -111.11,-222 -111.11,-222 -105.11,-222 -99.1104,-228 -99.1104,-234 -99.1104,-234 -99.1104,-300 -99.1104,-300 -99.1104,-306 -105.11,-312 -111.11,-312 -111.11,-312 -208.89,-312 -208.89,-312 -214.89,-312 -220.89,-306 -220.89,-300 -220.89,-300 -220.89,-234 -220.89,-234 -220.89,-228 -214.89,-222 -208.89,-222"/>
<text text-anchor="middle" x="-160" y="-296.8" font-family="Times,serif" font-size="14.00">SessionsController</text>
<polyline fill="none" stroke="black" points="-220.89,-290 -99.1104,-290 "/>
<text text-anchor="start" x="-212.89" y="-274.8" font-family="Times,serif" font-size="14.00">new</text>
<polyline fill="none" stroke="black" points="-220.89,-268 -99.1104,-268 "/>
<polyline fill="none" stroke="black" points="-220.89,-244 -99.1104,-244 "/>
<text text-anchor="start" x="-212.89" y="-228.8" font-family="Times,serif" font-size="14.00">_layout</text>
</g>
<!-- UsersController -->
<g id="node6" class="node"><title>UsersController</title>
<path fill="none" stroke="black" d="M-73.4346,135C-73.4346,135 55.4346,135 55.4346,135 61.4346,135 67.4346,129 67.4346,123 67.4346,123 67.4346,-125 67.4346,-125 67.4346,-131 61.4346,-137 55.4346,-137 55.4346,-137 -73.4346,-137 -73.4346,-137 -79.4346,-137 -85.4346,-131 -85.4346,-125 -85.4346,-125 -85.4346,123 -85.4346,123 -85.4346,129 -79.4346,135 -73.4346,135"/>
<text text-anchor="middle" x="-9" y="-121.8" font-family="Times,serif" font-size="14.00">UsersController</text>
<polyline fill="none" stroke="black" points="-85.4346,-115 67.4346,-115 "/>
<text text-anchor="start" x="-77.4346" y="-99.8" font-family="Times,serif" font-size="14.00">create</text>
<text text-anchor="start" x="-77.4346" y="-85.8" font-family="Times,serif" font-size="14.00">destroy</text>
<text text-anchor="start" x="-77.4346" y="-71.8" font-family="Times,serif" font-size="14.00">edit</text>
<text text-anchor="start" x="-77.4346" y="-57.8" font-family="Times,serif" font-size="14.00">index</text>
<text text-anchor="start" x="-77.4346" y="-43.8" font-family="Times,serif" font-size="14.00">managecontent</text>
<text text-anchor="start" x="-77.4346" y="-29.8" font-family="Times,serif" font-size="14.00">new</text>
<text text-anchor="start" x="-77.4346" y="-15.8" font-family="Times,serif" font-size="14.00">ratecount</text>
<text text-anchor="start" x="-77.4346" y="-1.8" font-family="Times,serif" font-size="14.00">settings</text>
<text text-anchor="start" x="-77.4346" y="12.2" font-family="Times,serif" font-size="14.00">show</text>
<text text-anchor="start" x="-77.4346" y="26.2" font-family="Times,serif" font-size="14.00">statistics</text>
<text text-anchor="start" x="-77.4346" y="40.2" font-family="Times,serif" font-size="14.00">update</text>
<polyline fill="none" stroke="black" points="-85.4346,47 67.4346,47 "/>
<polyline fill="none" stroke="black" points="-85.4346,71 67.4346,71 "/>
<text text-anchor="start" x="-77.4346" y="86.2" font-family="Times,serif" font-size="14.00">_layout</text>
<text text-anchor="start" x="-77.4346" y="100.2" font-family="Times,serif" font-size="14.00">set_user</text>
<text text-anchor="start" x="-77.4346" y="114.2" font-family="Times,serif" font-size="14.00">skip_password_attribute</text>
<text text-anchor="start" x="-77.4346" y="128.2" font-family="Times,serif" font-size="14.00">user_params</text>
</g>
<!-- WorkCategoriesController -->
<g id="node7" class="node"><title>WorkCategoriesController</title>
<path fill="none" stroke="black" d="M232.912,-222C232.912,-222 373.088,-222 373.088,-222 379.088,-222 385.088,-228 385.088,-234 385.088,-234 385.088,-328 385.088,-328 385.088,-334 379.088,-340 373.088,-340 373.088,-340 232.912,-340 232.912,-340 226.912,-340 220.912,-334 220.912,-328 220.912,-328 220.912,-234 220.912,-234 220.912,-228 226.912,-222 232.912,-222"/>
<text text-anchor="middle" x="303" y="-324.8" font-family="Times,serif" font-size="14.00">WorkCategoriesController</text>
<polyline fill="none" stroke="black" points="220.912,-318 385.088,-318 "/>
<text text-anchor="start" x="228.912" y="-302.8" font-family="Times,serif" font-size="14.00">permitted_params</text>
<text text-anchor="start" x="228.912" y="-288.8" font-family="Times,serif" font-size="14.00">ratetypes</text>
<text text-anchor="start" x="228.912" y="-274.8" font-family="Times,serif" font-size="14.00">show</text>
<polyline fill="none" stroke="black" points="220.912,-268 385.088,-268 "/>
<polyline fill="none" stroke="black" points="220.912,-244 385.088,-244 "/>
<text text-anchor="start" x="228.912" y="-228.8" font-family="Times,serif" font-size="14.00">_layout</text>
</g>
<!-- WorksController -->
<g id="node8" class="node"><title>WorksController</title>
<path fill="none" stroke="black" d="M114.123,101C114.123,101 199.877,101 199.877,101 205.877,101 211.877,95 211.877,89 211.877,89 211.877,-173 211.877,-173 211.877,-179 205.877,-185 199.877,-185 199.877,-185 114.123,-185 114.123,-185 108.123,-185 102.123,-179 102.123,-173 102.123,-173 102.123,89 102.123,89 102.123,95 108.123,101 114.123,101"/>
<text text-anchor="middle" x="157" y="-169.8" font-family="Times,serif" font-size="14.00">WorksController</text>
<polyline fill="none" stroke="black" points="102.123,-163 211.877,-163 "/>
<text text-anchor="start" x="110.123" y="-147.8" font-family="Times,serif" font-size="14.00">create</text>
<text text-anchor="start" x="110.123" y="-133.8" font-family="Times,serif" font-size="14.00">destroy</text>
<text text-anchor="start" x="110.123" y="-119.8" font-family="Times,serif" font-size="14.00">edit</text>
<text text-anchor="start" x="110.123" y="-105.8" font-family="Times,serif" font-size="14.00">hidework</text>
<text text-anchor="start" x="110.123" y="-91.8" font-family="Times,serif" font-size="14.00">index</text>
<text text-anchor="start" x="110.123" y="-77.8" font-family="Times,serif" font-size="14.00">new</text>
<text text-anchor="start" x="110.123" y="-63.8" font-family="Times,serif" font-size="14.00">nextquestion</text>
<text text-anchor="start" x="110.123" y="-49.8" font-family="Times,serif" font-size="14.00">nextwork</text>
<text text-anchor="start" x="110.123" y="-35.8" font-family="Times,serif" font-size="14.00">rate</text>
<text text-anchor="start" x="110.123" y="-21.8" font-family="Times,serif" font-size="14.00">ratetype</text>
<text text-anchor="start" x="110.123" y="-7.8" font-family="Times,serif" font-size="14.00">ratetypes</text>
<text text-anchor="start" x="110.123" y="6.2" font-family="Times,serif" font-size="14.00">show</text>
<text text-anchor="start" x="110.123" y="20.2" font-family="Times,serif" font-size="14.00">update</text>
<polyline fill="none" stroke="black" points="102.123,27 211.877,27 "/>
<polyline fill="none" stroke="black" points="102.123,51 211.877,51 "/>
<text text-anchor="start" x="110.123" y="66.2" font-family="Times,serif" font-size="14.00">_layout</text>
<text text-anchor="start" x="110.123" y="80.2" font-family="Times,serif" font-size="14.00">set_work</text>
<text text-anchor="start" x="110.123" y="94.2" font-family="Times,serif" font-size="14.00">work_params</text>
</g>
</g>
</svg>
