<?xml version="1.0" encoding="UTF-8" standalone="no"?>
<!DOCTYPE svg PUBLIC "-//W3C//DTD SVG 1.1//EN"
 "http://www.w3.org/Graphics/SVG/1.1/DTD/svg11.dtd">
<!-- Generated by graphviz version 2.38.0 (20140413.2041)
 -->
<!-- Title: models_diagram Pages: 1 -->
<svg width="1029pt" height="1147pt"
 viewBox="0.00 0.00 1028.51 1147.00" xmlns="http://www.w3.org/2000/svg" xmlns:xlink="http://www.w3.org/1999/xlink">
<g id="graph0" class="graph" transform="scale(1 1) rotate(0) translate(4 1143)">
<title>models_diagram</title>
<polygon fill="none" stroke="none" points="-4,4 -4,-1143 1024.51,-1143 1024.51,4 -4,4"/>
<!-- _diagram_info -->
<g id="node1" class="node"><title>_diagram_info</title>
<text text-anchor="start" x="8" y="-1054.6" font-family="Times,serif" font-size="13.00">Models diagram</text>
<text text-anchor="start" x="8" y="-1041.6" font-family="Times,serif" font-size="13.00">Date: Apr 06 2016 &#45; 09:03</text>
<text text-anchor="start" x="8" y="-1028.6" font-family="Times,serif" font-size="13.00">Migration version: 20160406042104</text>
<text text-anchor="start" x="8" y="-1015.6" font-family="Times,serif" font-size="13.00">Generated by RailRoady 1.4.2</text>
<text text-anchor="start" x="8" y="-1002.6" font-family="Times,serif" font-size="13.00">http://railroady.prestonlee.com</text>
</g>
<!-- AdminUser -->
<g id="node2" class="node"><title>AdminUser</title>
<path fill="none" stroke="black" d="M237.641,-926.5C237.641,-926.5 433.735,-926.5 433.735,-926.5 439.735,-926.5 445.735,-932.5 445.735,-938.5 445.735,-938.5 445.735,-1126.5 445.735,-1126.5 445.735,-1132.5 439.735,-1138.5 433.735,-1138.5 433.735,-1138.5 237.641,-1138.5 237.641,-1138.5 231.641,-1138.5 225.641,-1132.5 225.641,-1126.5 225.641,-1126.5 225.641,-938.5 225.641,-938.5 225.641,-932.5 231.641,-926.5 237.641,-926.5"/>
<text text-anchor="middle" x="335.688" y="-1123.3" font-family="Times,serif" font-size="14.00">AdminUser</text>
<polyline fill="none" stroke="black" points="225.641,-1116.5 445.735,-1116.5 "/>
<text text-anchor="start" x="233.641" y="-1101.3" font-family="Times,serif" font-size="14.00">id :int(11)</text>
<text text-anchor="start" x="233.641" y="-1087.3" font-family="Times,serif" font-size="14.00">email :varchar(255)</text>
<text text-anchor="start" x="233.641" y="-1073.3" font-family="Times,serif" font-size="14.00">encrypted_password :varchar(255)</text>
<text text-anchor="start" x="233.641" y="-1059.3" font-family="Times,serif" font-size="14.00">reset_password_token :varchar(255)</text>
<text text-anchor="start" x="233.641" y="-1045.3" font-family="Times,serif" font-size="14.00">reset_password_sent_at :datetime</text>
<text text-anchor="start" x="233.641" y="-1031.3" font-family="Times,serif" font-size="14.00">remember_created_at :datetime</text>
<text text-anchor="start" x="233.641" y="-1017.3" font-family="Times,serif" font-size="14.00">sign_in_count :int(11)</text>
<text text-anchor="start" x="233.641" y="-1003.3" font-family="Times,serif" font-size="14.00">current_sign_in_at :datetime</text>
<text text-anchor="start" x="233.641" y="-989.3" font-family="Times,serif" font-size="14.00">last_sign_in_at :datetime</text>
<text text-anchor="start" x="233.641" y="-975.3" font-family="Times,serif" font-size="14.00">current_sign_in_ip :varchar(255)</text>
<text text-anchor="start" x="233.641" y="-961.3" font-family="Times,serif" font-size="14.00">last_sign_in_ip :varchar(255)</text>
<text text-anchor="start" x="233.641" y="-947.3" font-family="Times,serif" font-size="14.00">created_at :datetime</text>
<text text-anchor="start" x="233.641" y="-933.3" font-family="Times,serif" font-size="14.00">updated_at :datetime</text>
</g>
<!-- Focu -->
<g id="node3" class="node"><title>Focu</title>
<path fill="none" stroke="black" d="M476.182,-989.5C476.182,-989.5 585.193,-989.5 585.193,-989.5 591.193,-989.5 597.193,-995.5 597.193,-1001.5 597.193,-1001.5 597.193,-1063.5 597.193,-1063.5 597.193,-1069.5 591.193,-1075.5 585.193,-1075.5 585.193,-1075.5 476.182,-1075.5 476.182,-1075.5 470.182,-1075.5 464.182,-1069.5 464.182,-1063.5 464.182,-1063.5 464.182,-1001.5 464.182,-1001.5 464.182,-995.5 470.182,-989.5 476.182,-989.5"/>
<text text-anchor="middle" x="530.688" y="-1060.3" font-family="Times,serif" font-size="14.00">Focu</text>
<polyline fill="none" stroke="black" points="464.182,-1053.5 597.193,-1053.5 "/>
<text text-anchor="start" x="472.182" y="-1038.3" font-family="Times,serif" font-size="14.00">id :int(11)</text>
<text text-anchor="start" x="472.182" y="-1024.3" font-family="Times,serif" font-size="14.00">title :varchar(255)</text>
<text text-anchor="start" x="472.182" y="-1010.3" font-family="Times,serif" font-size="14.00">created_at :datetime</text>
<text text-anchor="start" x="472.182" y="-996.3" font-family="Times,serif" font-size="14.00">updated_at :datetime</text>
</g>
<!-- RatingType -->
<g id="node9" class="node"><title>RatingType</title>
<path fill="none" stroke="black" d="M476.182,-789.5C476.182,-789.5 585.193,-789.5 585.193,-789.5 591.193,-789.5 597.193,-795.5 597.193,-801.5 597.193,-801.5 597.193,-877.5 597.193,-877.5 597.193,-883.5 591.193,-889.5 585.193,-889.5 585.193,-889.5 476.182,-889.5 476.182,-889.5 470.182,-889.5 464.182,-883.5 464.182,-877.5 464.182,-877.5 464.182,-801.5 464.182,-801.5 464.182,-795.5 470.182,-789.5 476.182,-789.5"/>
<text text-anchor="middle" x="530.688" y="-874.3" font-family="Times,serif" font-size="14.00">RatingType</text>
<polyline fill="none" stroke="black" points="464.182,-867.5 597.193,-867.5 "/>
<text text-anchor="start" x="472.182" y="-852.3" font-family="Times,serif" font-size="14.00">id :int(11)</text>
<text text-anchor="start" x="472.182" y="-838.3" font-family="Times,serif" font-size="14.00">name :varchar(255)</text>
<text text-anchor="start" x="472.182" y="-824.3" font-family="Times,serif" font-size="14.00">created_at :datetime</text>
<text text-anchor="start" x="472.182" y="-810.3" font-family="Times,serif" font-size="14.00">updated_at :datetime</text>
<text text-anchor="start" x="472.182" y="-796.3" font-family="Times,serif" font-size="14.00">focu_id :int(11)</text>
</g>
<!-- Focu&#45;&gt;RatingType -->
<g id="edge1" class="edge"><title>Focu&#45;&gt;RatingType</title>
<path fill="none" stroke="#c7a3ee" d="M530.688,-980.946C530.688,-955.973 530.688,-925.687 530.688,-899.642"/>
<ellipse fill="none" stroke="#c7a3ee" cx="530.688" cy="-985.111" rx="4" ry="4"/>
<polygon fill="#c7a3ee" stroke="#c7a3ee" points="530.688,-899.517 535.188,-889.517 530.688,-894.517 530.688,-889.517 530.688,-889.517 530.688,-889.517 530.688,-894.517 526.188,-889.517 530.688,-899.517 530.688,-899.517"/>
</g>
<!-- Question -->
<g id="node4" class="node"><title>Question</title>
<path fill="none" stroke="black" d="M424.373,-214.5C424.373,-214.5 543.002,-214.5 543.002,-214.5 549.002,-214.5 555.002,-220.5 555.002,-226.5 555.002,-226.5 555.002,-316.5 555.002,-316.5 555.002,-322.5 549.002,-328.5 543.002,-328.5 543.002,-328.5 424.373,-328.5 424.373,-328.5 418.373,-328.5 412.373,-322.5 412.373,-316.5 412.373,-316.5 412.373,-226.5 412.373,-226.5 412.373,-220.5 418.373,-214.5 424.373,-214.5"/>
<text text-anchor="middle" x="483.688" y="-313.3" font-family="Times,serif" font-size="14.00">Question</text>
<polyline fill="none" stroke="black" points="412.373,-306.5 555.002,-306.5 "/>
<text text-anchor="start" x="420.373" y="-291.3" font-family="Times,serif" font-size="14.00">id :int(11)</text>
<text text-anchor="start" x="420.373" y="-277.3" font-family="Times,serif" font-size="14.00">title :varchar(255)</text>
<text text-anchor="start" x="420.373" y="-263.3" font-family="Times,serif" font-size="14.00">rating_type_id :int(11)</text>
<text text-anchor="start" x="420.373" y="-249.3" font-family="Times,serif" font-size="14.00">rate_level_id :int(11)</text>
<text text-anchor="start" x="420.373" y="-235.3" font-family="Times,serif" font-size="14.00">created_at :datetime</text>
<text text-anchor="start" x="420.373" y="-221.3" font-family="Times,serif" font-size="14.00">updated_at :datetime</text>
</g>
<!-- Rating -->
<g id="node8" class="node"><title>Rating</title>
<path fill="none" stroke="black" d="M429.182,-0.5C429.182,-0.5 538.193,-0.5 538.193,-0.5 544.193,-0.5 550.193,-6.5 550.193,-12.5 550.193,-12.5 550.193,-116.5 550.193,-116.5 550.193,-122.5 544.193,-128.5 538.193,-128.5 538.193,-128.5 429.182,-128.5 429.182,-128.5 423.182,-128.5 417.182,-122.5 417.182,-116.5 417.182,-116.5 417.182,-12.5 417.182,-12.5 417.182,-6.5 423.182,-0.5 429.182,-0.5"/>
<text text-anchor="middle" x="483.688" y="-113.3" font-family="Times,serif" font-size="14.00">Rating</text>
<polyline fill="none" stroke="black" points="417.182,-106.5 550.193,-106.5 "/>
<text text-anchor="start" x="425.182" y="-91.3" font-family="Times,serif" font-size="14.00">id :int(11)</text>
<text text-anchor="start" x="425.182" y="-77.3" font-family="Times,serif" font-size="14.00">score :int(11)</text>
<text text-anchor="start" x="425.182" y="-63.3" font-family="Times,serif" font-size="14.00">work_id :int(11)</text>
<text text-anchor="start" x="425.182" y="-49.3" font-family="Times,serif" font-size="14.00">created_at :datetime</text>
<text text-anchor="start" x="425.182" y="-35.3" font-family="Times,serif" font-size="14.00">updated_at :datetime</text>
<text text-anchor="start" x="425.182" y="-21.3" font-family="Times,serif" font-size="14.00">author_id :int(11)</text>
<text text-anchor="start" x="425.182" y="-7.3" font-family="Times,serif" font-size="14.00">question_id :int(11)</text>
</g>
<!-- Question&#45;&gt;Rating -->
<g id="edge2" class="edge"><title>Question&#45;&gt;Rating</title>
<path fill="none" stroke="#417466" d="M477.374,-206.239C476.864,-184.888 476.801,-160.954 477.184,-138.963"/>
<ellipse fill="none" stroke="#417466" cx="477.489" cy="-210.484" rx="4" ry="4"/>
<polygon fill="#417466" stroke="#417466" points="477.19,-138.677 481.899,-128.774 477.295,-133.678 477.4,-128.679 477.4,-128.679 477.4,-128.679 477.295,-133.678 472.901,-128.585 477.19,-138.677 477.19,-138.677"/>
</g>
<!-- RateLevel -->
<g id="node5" class="node"><title>RateLevel</title>
<path fill="none" stroke="black" d="M627.182,-982.5C627.182,-982.5 736.193,-982.5 736.193,-982.5 742.193,-982.5 748.193,-988.5 748.193,-994.5 748.193,-994.5 748.193,-1070.5 748.193,-1070.5 748.193,-1076.5 742.193,-1082.5 736.193,-1082.5 736.193,-1082.5 627.182,-1082.5 627.182,-1082.5 621.182,-1082.5 615.182,-1076.5 615.182,-1070.5 615.182,-1070.5 615.182,-994.5 615.182,-994.5 615.182,-988.5 621.182,-982.5 627.182,-982.5"/>
<text text-anchor="middle" x="681.688" y="-1067.3" font-family="Times,serif" font-size="14.00">RateLevel</text>
<polyline fill="none" stroke="black" points="615.182,-1060.5 748.193,-1060.5 "/>
<text text-anchor="start" x="623.182" y="-1045.3" font-family="Times,serif" font-size="14.00">id :int(11)</text>
<text text-anchor="start" x="623.182" y="-1031.3" font-family="Times,serif" font-size="14.00">value :int(11)</text>
<text text-anchor="start" x="623.182" y="-1017.3" font-family="Times,serif" font-size="14.00">created_at :datetime</text>
<text text-anchor="start" x="623.182" y="-1003.3" font-family="Times,serif" font-size="14.00">updated_at :datetime</text>
<text text-anchor="start" x="623.182" y="-989.3" font-family="Times,serif" font-size="14.00">code :varchar(255)</text>
</g>
<!-- RateTypeDescription -->
<g id="node6" class="node"><title>RateTypeDescription</title>
<path fill="none" stroke="black" d="M778.373,-968.5C778.373,-968.5 897.002,-968.5 897.002,-968.5 903.002,-968.5 909.002,-974.5 909.002,-980.5 909.002,-980.5 909.002,-1084.5 909.002,-1084.5 909.002,-1090.5 903.002,-1096.5 897.002,-1096.5 897.002,-1096.5 778.373,-1096.5 778.373,-1096.5 772.373,-1096.5 766.373,-1090.5 766.373,-1084.5 766.373,-1084.5 766.373,-980.5 766.373,-980.5 766.373,-974.5 772.373,-968.5 778.373,-968.5"/>
<text text-anchor="middle" x="837.688" y="-1081.3" font-family="Times,serif" font-size="14.00">RateTypeDescription</text>
<polyline fill="none" stroke="black" points="766.373,-1074.5 909.002,-1074.5 "/>
<text text-anchor="start" x="774.373" y="-1059.3" font-family="Times,serif" font-size="14.00">id :int(11)</text>
<text text-anchor="start" x="774.373" y="-1045.3" font-family="Times,serif" font-size="14.00">rating_type_id :int(11)</text>
<text text-anchor="start" x="774.373" y="-1031.3" font-family="Times,serif" font-size="14.00">focu_id :int(11)</text>
<text text-anchor="start" x="774.373" y="-1017.3" font-family="Times,serif" font-size="14.00">rate_level_id :int(11)</text>
<text text-anchor="start" x="774.373" y="-1003.3" font-family="Times,serif" font-size="14.00">description :text</text>
<text text-anchor="start" x="774.373" y="-989.3" font-family="Times,serif" font-size="14.00">created_at :datetime</text>
<text text-anchor="start" x="774.373" y="-975.3" font-family="Times,serif" font-size="14.00">updated_at :datetime</text>
</g>
<!-- Ratecolor -->
<g id="node7" class="node"><title>Ratecolor</title>
<path fill="none" stroke="black" d="M938.87,-989.5C938.87,-989.5 1008.51,-989.5 1008.51,-989.5 1014.51,-989.5 1020.51,-995.5 1020.51,-1001.5 1020.51,-1001.5 1020.51,-1063.5 1020.51,-1063.5 1020.51,-1069.5 1014.51,-1075.5 1008.51,-1075.5 1008.51,-1075.5 938.87,-1075.5 938.87,-1075.5 932.87,-1075.5 926.87,-1069.5 926.87,-1063.5 926.87,-1063.5 926.87,-1001.5 926.87,-1001.5 926.87,-995.5 932.87,-989.5 938.87,-989.5"/>
<text text-anchor="middle" x="973.688" y="-1060.3" font-family="Times,serif" font-size="14.00">Ratecolor</text>
<polyline fill="none" stroke="black" points="926.87,-1053.5 1020.51,-1053.5 "/>
<text text-anchor="start" x="934.87" y="-1038.3" font-family="Times,serif" font-size="14.00">id :int(11)</text>
<text text-anchor="start" x="934.87" y="-1024.3" font-family="Times,serif" font-size="14.00">rating :int(11)</text>
<text text-anchor="start" x="934.87" y="-1010.3" font-family="Times,serif" font-size="14.00">red :int(11)</text>
<text text-anchor="start" x="934.87" y="-996.3" font-family="Times,serif" font-size="14.00">green :int(11)</text>
</g>
<!-- Rating&#45;&gt;Question -->
<g id="edge3" class="edge"><title>Rating&#45;&gt;Question</title>
<path fill="none" stroke="#57801a" d="M490.153,-136.88C490.578,-159.435 490.527,-184.212 490.002,-206.239"/>
<ellipse fill="none" stroke="#57801a" cx="490.062" cy="-132.679" rx="4" ry="4"/>
<ellipse fill="#57801a" stroke="#57801a" cx="489.887" cy="-210.484" rx="4" ry="4"/>
</g>
<!-- RatingType&#45;&gt;Question -->
<g id="edge4" class="edge"><title>RatingType&#45;&gt;Question</title>
<path fill="none" stroke="#6eaade" d="M509.627,-781.544C506.843,-772.12 504.373,-762.368 502.688,-753 476.4,-606.881 477.466,-431.901 480.568,-338.667"/>
<ellipse fill="none" stroke="#6eaade" cx="510.856" cy="-785.543" rx="4.00001" ry="4.00001"/>
<polygon fill="#6eaade" stroke="#6eaade" points="480.573,-338.527 485.421,-328.691 480.748,-333.53 480.924,-328.533 480.924,-328.533 480.924,-328.533 480.748,-333.53 476.427,-328.375 480.573,-338.527 480.573,-338.527"/>
</g>
<!-- WorkCategory -->
<g id="node12" class="node"><title>WorkCategory</title>
<path fill="none" stroke="black" d="M524.182,-540.5C524.182,-540.5 633.193,-540.5 633.193,-540.5 639.193,-540.5 645.193,-546.5 645.193,-552.5 645.193,-552.5 645.193,-614.5 645.193,-614.5 645.193,-620.5 639.193,-626.5 633.193,-626.5 633.193,-626.5 524.182,-626.5 524.182,-626.5 518.182,-626.5 512.182,-620.5 512.182,-614.5 512.182,-614.5 512.182,-552.5 512.182,-552.5 512.182,-546.5 518.182,-540.5 524.182,-540.5"/>
<text text-anchor="middle" x="578.688" y="-611.3" font-family="Times,serif" font-size="14.00">WorkCategory</text>
<polyline fill="none" stroke="black" points="512.182,-604.5 645.193,-604.5 "/>
<text text-anchor="start" x="520.182" y="-589.3" font-family="Times,serif" font-size="14.00">id :int(11)</text>
<text text-anchor="start" x="520.182" y="-575.3" font-family="Times,serif" font-size="14.00">name :varchar(255)</text>
<text text-anchor="start" x="520.182" y="-561.3" font-family="Times,serif" font-size="14.00">created_at :datetime</text>
<text text-anchor="start" x="520.182" y="-547.3" font-family="Times,serif" font-size="14.00">updated_at :datetime</text>
</g>
<!-- RatingType&#45;&gt;WorkCategory -->
<g id="edge5" class="edge"><title>RatingType&#45;&gt;WorkCategory</title>
<path fill="none" stroke="#b8a683" d="M541.886,-779.24C550.039,-736.099 560.978,-678.214 568.807,-636.787"/>
<polygon fill="#b8a683" stroke="#b8a683" points="541.857,-779.399 535.578,-788.389 540.928,-784.312 540,-789.225 540,-789.225 540,-789.225 540.928,-784.312 544.421,-790.061 541.857,-779.399 541.857,-779.399"/>
<polygon fill="#b8a683" stroke="#b8a683" points="568.82,-636.719 575.098,-627.728 569.748,-631.806 570.677,-626.893 570.677,-626.893 570.677,-626.893 569.748,-631.806 566.255,-626.057 568.82,-636.719 568.82,-636.719"/>
</g>
<!-- User -->
<g id="node10" class="node"><title>User</title>
<path fill="none" stroke="black" d="M675.641,-414.5C675.641,-414.5 871.735,-414.5 871.735,-414.5 877.735,-414.5 883.735,-420.5 883.735,-426.5 883.735,-426.5 883.735,-740.5 883.735,-740.5 883.735,-746.5 877.735,-752.5 871.735,-752.5 871.735,-752.5 675.641,-752.5 675.641,-752.5 669.641,-752.5 663.641,-746.5 663.641,-740.5 663.641,-740.5 663.641,-426.5 663.641,-426.5 663.641,-420.5 669.641,-414.5 675.641,-414.5"/>
<text text-anchor="middle" x="773.688" y="-737.3" font-family="Times,serif" font-size="14.00">User</text>
<polyline fill="none" stroke="black" points="663.641,-730.5 883.735,-730.5 "/>
<text text-anchor="start" x="671.641" y="-715.3" font-family="Times,serif" font-size="14.00">id :int(11)</text>
<text text-anchor="start" x="671.641" y="-701.3" font-family="Times,serif" font-size="14.00">name :varchar(255)</text>
<text text-anchor="start" x="671.641" y="-687.3" font-family="Times,serif" font-size="14.00">email :varchar(255)</text>
<text text-anchor="start" x="671.641" y="-673.3" font-family="Times,serif" font-size="14.00">password :varchar(255)</text>
<text text-anchor="start" x="671.641" y="-659.3" font-family="Times,serif" font-size="14.00">created_at :datetime</text>
<text text-anchor="start" x="671.641" y="-645.3" font-family="Times,serif" font-size="14.00">updated_at :datetime</text>
<text text-anchor="start" x="671.641" y="-631.3" font-family="Times,serif" font-size="14.00">surname :varchar(255)</text>
<text text-anchor="start" x="671.641" y="-617.3" font-family="Times,serif" font-size="14.00">password_digest :varchar(255)</text>
<text text-anchor="start" x="671.641" y="-603.3" font-family="Times,serif" font-size="14.00">picture :varchar(255)</text>
<text text-anchor="start" x="671.641" y="-589.3" font-family="Times,serif" font-size="14.00">about :text</text>
<text text-anchor="start" x="671.641" y="-575.3" font-family="Times,serif" font-size="14.00">country :varchar(255)</text>
<text text-anchor="start" x="671.641" y="-561.3" font-family="Times,serif" font-size="14.00">city :varchar(255)</text>
<text text-anchor="start" x="671.641" y="-547.3" font-family="Times,serif" font-size="14.00">zip :varchar(255)</text>
<text text-anchor="start" x="671.641" y="-533.3" font-family="Times,serif" font-size="14.00">encrypted_password :varchar(255)</text>
<text text-anchor="start" x="671.641" y="-519.3" font-family="Times,serif" font-size="14.00">reset_password_token :varchar(255)</text>
<text text-anchor="start" x="671.641" y="-505.3" font-family="Times,serif" font-size="14.00">reset_password_sent_at :datetime</text>
<text text-anchor="start" x="671.641" y="-491.3" font-family="Times,serif" font-size="14.00">remember_created_at :datetime</text>
<text text-anchor="start" x="671.641" y="-477.3" font-family="Times,serif" font-size="14.00">sign_in_count :int(11)</text>
<text text-anchor="start" x="671.641" y="-463.3" font-family="Times,serif" font-size="14.00">current_sign_in_at :datetime</text>
<text text-anchor="start" x="671.641" y="-449.3" font-family="Times,serif" font-size="14.00">last_sign_in_at :datetime</text>
<text text-anchor="start" x="671.641" y="-435.3" font-family="Times,serif" font-size="14.00">current_sign_in_ip :varchar(255)</text>
<text text-anchor="start" x="671.641" y="-421.3" font-family="Times,serif" font-size="14.00">last_sign_in_ip :varchar(255)</text>
</g>
<!-- Work -->
<g id="node11" class="node"><title>Work</title>
<path fill="none" stroke="black" d="M585.27,-165.5C585.27,-165.5 724.106,-165.5 724.106,-165.5 730.106,-165.5 736.106,-171.5 736.106,-177.5 736.106,-177.5 736.106,-365.5 736.106,-365.5 736.106,-371.5 730.106,-377.5 724.106,-377.5 724.106,-377.5 585.27,-377.5 585.27,-377.5 579.27,-377.5 573.27,-371.5 573.27,-365.5 573.27,-365.5 573.27,-177.5 573.27,-177.5 573.27,-171.5 579.27,-165.5 585.27,-165.5"/>
<text text-anchor="middle" x="654.688" y="-362.3" font-family="Times,serif" font-size="14.00">Work</text>
<polyline fill="none" stroke="black" points="573.27,-355.5 736.106,-355.5 "/>
<text text-anchor="start" x="581.27" y="-340.3" font-family="Times,serif" font-size="14.00">id :int(11)</text>
<text text-anchor="start" x="581.27" y="-326.3" font-family="Times,serif" font-size="14.00">title :varchar(255)</text>
<text text-anchor="start" x="581.27" y="-312.3" font-family="Times,serif" font-size="14.00">description :text</text>
<text text-anchor="start" x="581.27" y="-298.3" font-family="Times,serif" font-size="14.00">created_at :datetime</text>
<text text-anchor="start" x="581.27" y="-284.3" font-family="Times,serif" font-size="14.00">updated_at :datetime</text>
<text text-anchor="start" x="581.27" y="-270.3" font-family="Times,serif" font-size="14.00">url :varchar(255)</text>
<text text-anchor="start" x="581.27" y="-256.3" font-family="Times,serif" font-size="14.00">user_id :int(11)</text>
<text text-anchor="start" x="581.27" y="-242.3" font-family="Times,serif" font-size="14.00">picture :varchar(255)</text>
<text text-anchor="start" x="581.27" y="-228.3" font-family="Times,serif" font-size="14.00">work_category_id :int(11)</text>
<text text-anchor="start" x="581.27" y="-214.3" font-family="Times,serif" font-size="14.00">is_active :tinyint(1)</text>
<text text-anchor="start" x="581.27" y="-200.3" font-family="Times,serif" font-size="14.00">is_visible :tinyint(1)</text>
<text text-anchor="start" x="581.27" y="-186.3" font-family="Times,serif" font-size="14.00">focus_id :int(11)</text>
<text text-anchor="start" x="581.27" y="-172.3" font-family="Times,serif" font-size="14.00">focu_id :int(11)</text>
</g>
<!-- User&#45;&gt;Work -->
<g id="edge6" class="edge"><title>User&#45;&gt;Work</title>
<path fill="none" stroke="#0f5520" d="M706.248,-406.816C703.715,-400.217 701.201,-393.67 698.726,-387.222"/>
<ellipse fill="none" stroke="#0f5520" cx="707.704" cy="-410.611" rx="4.00001" ry="4.00001"/>
<polygon fill="#0f5520" stroke="#0f5520" points="698.714,-387.189 699.331,-376.24 696.922,-382.521 695.13,-377.853 695.13,-377.853 695.13,-377.853 696.922,-382.521 690.929,-379.466 698.714,-387.189 698.714,-387.189"/>
</g>
<!-- Work&#45;&gt;Rating -->
<g id="edge8" class="edge"><title>Work&#45;&gt;Rating</title>
<path fill="none" stroke="#39ca85" d="M567.892,-166.447C559.368,-156.228 550.862,-146.03 542.711,-136.259"/>
<ellipse fill="none" stroke="#39ca85" cx="570.632" cy="-169.731" rx="4.00002" ry="4.00002"/>
<polygon fill="#39ca85" stroke="#39ca85" points="542.663,-136.201 539.713,-125.64 539.46,-132.362 536.257,-128.522 536.257,-128.522 536.257,-128.522 539.46,-132.362 532.802,-131.405 542.663,-136.201 542.663,-136.201"/>
</g>
<!-- Impression -->
<g id="node13" class="node"><title>Impression</title>
<ellipse fill="none" stroke="black" cx="654.688" cy="-64.5" rx="49.3119" ry="18"/>
<text text-anchor="middle" x="654.688" y="-60.3" font-family="Times,serif" font-size="14.00">Impression</text>
</g>
<!-- Work&#45;&gt;Impression -->
<g id="edge7" class="edge"><title>Work&#45;&gt;Impression</title>
<path fill="none" stroke="#7b427c" d="M654.688,-157.051C654.688,-133.135 654.688,-110.024 654.688,-93.0053"/>
<ellipse fill="none" stroke="#7b427c" cx="654.688" cy="-161.298" rx="4" ry="4"/>
<polygon fill="#7b427c" stroke="#7b427c" points="654.688,-92.754 659.188,-82.754 654.688,-87.754 654.688,-82.754 654.688,-82.754 654.688,-82.754 654.688,-87.754 650.188,-82.7541 654.688,-92.754 654.688,-92.754"/>
</g>
<!-- WorkCategory&#45;&gt;Work -->
<g id="edge9" class="edge"><title>WorkCategory&#45;&gt;Work</title>
<path fill="none" stroke="#9d3ba6" d="M590.933,-532.553C600.517,-493.461 614.23,-437.527 626.484,-387.543"/>
<ellipse fill="none" stroke="#9d3ba6" cx="589.969" cy="-536.484" rx="4.00001" ry="4.00001"/>
<polygon fill="#9d3ba6" stroke="#9d3ba6" points="626.532,-387.345 633.284,-378.704 627.723,-382.488 628.913,-377.632 628.913,-377.632 628.913,-377.632 627.723,-382.488 624.543,-376.561 626.532,-387.345 626.532,-387.345"/>
</g>
</g>
</svg>
