<?xml version="1.0" encoding="UTF-8" standalone="no"?>
<!DOCTYPE svg PUBLIC "-//W3C//DTD SVG 1.1//EN"
 "http://www.w3.org/Graphics/SVG/1.1/DTD/svg11.dtd">
<!-- Generated by graphviz version 2.38.0 (20140413.2041)
 -->
<!-- Title: models_diagram Pages: 1 -->
<svg width="816pt" height="369pt"
 viewBox="0.00 0.00 816.17 369.00" xmlns="http://www.w3.org/2000/svg" xmlns:xlink="http://www.w3.org/1999/xlink">
<g id="graph0" class="graph" transform="scale(1 1) rotate(0) translate(4 365)">
<title>models_diagram</title>
<polygon fill="none" stroke="none" points="-4,4 -4,-365 812.171,-365 812.171,4 -4,4"/>
<!-- _diagram_info -->
<g id="node1" class="node"><title>_diagram_info</title>
<text text-anchor="start" x="8" y="-346.6" font-family="Times,serif" font-size="13.00">Models diagram</text>
<text text-anchor="start" x="8" y="-333.6" font-family="Times,serif" font-size="13.00">Date: Apr 06 2016 &#45; 09:03</text>
<text text-anchor="start" x="8" y="-320.6" font-family="Times,serif" font-size="13.00">Migration version: 20160406042104</text>
<text text-anchor="start" x="8" y="-307.6" font-family="Times,serif" font-size="13.00">Generated by RailRoady 1.4.2</text>
<text text-anchor="start" x="8" y="-294.6" font-family="Times,serif" font-size="13.00">http://railroady.prestonlee.com</text>
</g>
<!-- AdminUser -->
<g id="node2" class="node"><title>AdminUser</title>
<ellipse fill="none" stroke="black" cx="276.688" cy="-324.5" rx="51.2415" ry="18"/>
<text text-anchor="middle" x="276.688" y="-320.3" font-family="Times,serif" font-size="14.00">AdminUser</text>
</g>
<!-- Focu -->
<g id="node3" class="node"><title>Focu</title>
<ellipse fill="none" stroke="black" cx="373.688" cy="-324.5" rx="27.589" ry="18"/>
<text text-anchor="middle" x="373.688" y="-320.3" font-family="Times,serif" font-size="14.00">Focu</text>
</g>
<!-- RatingType -->
<g id="node9" class="node"><title>RatingType</title>
<ellipse fill="none" stroke="black" cx="373.688" cy="-234" rx="51.4832" ry="18"/>
<text text-anchor="middle" x="373.688" y="-229.8" font-family="Times,serif" font-size="14.00">RatingType</text>
</g>
<!-- Focu&#45;&gt;RatingType -->
<g id="edge1" class="edge"><title>Focu&#45;&gt;RatingType</title>
<path fill="none" stroke="#989180" d="M373.688,-298.189C373.688,-286.971 373.688,-273.752 373.688,-262.311"/>
<ellipse fill="none" stroke="#989180" cx="373.688" cy="-302.436" rx="4" ry="4"/>
<polygon fill="#989180" stroke="#989180" points="373.688,-262.011 378.188,-252.011 373.688,-257.011 373.688,-252.011 373.688,-252.011 373.688,-252.011 373.688,-257.011 369.188,-252.011 373.688,-262.011 373.688,-262.011"/>
</g>
<!-- Question -->
<g id="node4" class="node"><title>Question</title>
<ellipse fill="none" stroke="black" cx="328.688" cy="-90" rx="42.0784" ry="18"/>
<text text-anchor="middle" x="328.688" y="-85.8" font-family="Times,serif" font-size="14.00">Question</text>
</g>
<!-- Rating -->
<g id="node8" class="node"><title>Rating</title>
<ellipse fill="none" stroke="black" cx="328.688" cy="-18" rx="33.877" ry="18"/>
<text text-anchor="middle" x="328.688" y="-13.8" font-family="Times,serif" font-size="14.00">Rating</text>
</g>
<!-- Question&#45;&gt;Rating -->
<g id="edge2" class="edge"><title>Question&#45;&gt;Rating</title>
<path fill="none" stroke="#95e6bb" d="M322.182,-63.8609C321.886,-58.032 321.859,-51.8058 322.101,-45.9045"/>
<ellipse fill="none" stroke="#95e6bb" cx="322.504" cy="-68.0666" rx="4" ry="4"/>
<polygon fill="#95e6bb" stroke="#95e6bb" points="322.111,-45.7634 327.315,-36.1109 322.469,-40.7762 322.826,-35.789 322.826,-35.789 322.826,-35.789 322.469,-40.7762 318.338,-35.4671 322.111,-45.7634 322.111,-45.7634"/>
</g>
<!-- RateLevel -->
<g id="node5" class="node"><title>RateLevel</title>
<ellipse fill="none" stroke="black" cx="465.688" cy="-324.5" rx="46.3873" ry="18"/>
<text text-anchor="middle" x="465.688" y="-320.3" font-family="Times,serif" font-size="14.00">RateLevel</text>
</g>
<!-- RateTypeDescription -->
<g id="node6" class="node"><title>RateTypeDescription</title>
<ellipse fill="none" stroke="black" cx="615.688" cy="-324.5" rx="85.2505" ry="18"/>
<text text-anchor="middle" x="615.688" y="-320.3" font-family="Times,serif" font-size="14.00">RateTypeDescription</text>
</g>
<!-- Ratecolor -->
<g id="node7" class="node"><title>Ratecolor</title>
<ellipse fill="none" stroke="black" cx="763.688" cy="-324.5" rx="44.4664" ry="18"/>
<text text-anchor="middle" x="763.688" y="-320.3" font-family="Times,serif" font-size="14.00">Ratecolor</text>
</g>
<!-- Rating&#45;&gt;Question -->
<g id="edge3" class="edge"><title>Rating&#45;&gt;Question</title>
<path fill="none" stroke="#539a24" d="M335.194,-44.1446C335.519,-50.5566 335.519,-57.4491 335.194,-63.8609"/>
<ellipse fill="none" stroke="#539a24" cx="334.857" cy="-39.7771" rx="4" ry="4"/>
<ellipse fill="#539a24" stroke="#539a24" cx="334.872" cy="-68.0666" rx="4" ry="4"/>
</g>
<!-- RatingType&#45;&gt;Question -->
<g id="edge4" class="edge"><title>RatingType&#45;&gt;Question</title>
<path fill="none" stroke="#ca9250" d="M360.434,-209.146C355.888,-200.21 351.092,-189.837 347.688,-180 340.679,-159.751 335.764,-135.978 332.691,-118.098"/>
<ellipse fill="none" stroke="#ca9250" cx="362.306" cy="-212.727" rx="4.00002" ry="4.00002"/>
<polygon fill="#ca9250" stroke="#ca9250" points="332.665,-117.937 335.495,-107.342 331.859,-113.002 331.054,-108.067 331.054,-108.067 331.054,-108.067 331.859,-113.002 326.612,-108.793 332.665,-117.937 332.665,-117.937"/>
</g>
<!-- WorkCategory -->
<g id="node12" class="node"><title>WorkCategory</title>
<ellipse fill="none" stroke="black" cx="418.688" cy="-162" rx="61.9085" ry="18"/>
<text text-anchor="middle" x="418.688" y="-157.8" font-family="Times,serif" font-size="14.00">WorkCategory</text>
</g>
<!-- RatingType&#45;&gt;WorkCategory -->
<g id="edge5" class="edge"><title>RatingType&#45;&gt;WorkCategory</title>
<path fill="none" stroke="#ab2a27" d="M390.032,-207.575C394.028,-201.359 398.305,-194.707 402.302,-188.489"/>
<polygon fill="#ab2a27" stroke="#ab2a27" points="389.989,-207.643 380.796,-213.622 387.285,-211.849 384.581,-216.055 384.581,-216.055 384.581,-216.055 387.285,-211.849 388.366,-218.488 389.989,-207.643 389.989,-207.643"/>
<polygon fill="#ab2a27" stroke="#ab2a27" points="402.487,-188.201 411.68,-182.222 405.191,-183.995 407.895,-179.789 407.895,-179.789 407.895,-179.789 405.191,-183.995 404.11,-177.356 402.487,-188.201 402.487,-188.201"/>
</g>
<!-- User -->
<g id="node10" class="node"><title>User</title>
<ellipse fill="none" stroke="black" cx="525.688" cy="-162" rx="27" ry="18"/>
<text text-anchor="middle" x="525.688" y="-157.8" font-family="Times,serif" font-size="14.00">User</text>
</g>
<!-- Work -->
<g id="node11" class="node"><title>Work</title>
<ellipse fill="none" stroke="black" cx="423.688" cy="-90" rx="29.5766" ry="18"/>
<text text-anchor="middle" x="423.688" y="-85.8" font-family="Times,serif" font-size="14.00">Work</text>
</g>
<!-- User&#45;&gt;Work -->
<g id="edge6" class="edge"><title>User&#45;&gt;Work</title>
<path fill="none" stroke="#07cc0a" d="M500.678,-143.836C485.75,-133.591 466.767,-120.564 451.386,-110.009"/>
<ellipse fill="none" stroke="#07cc0a" cx="504.154" cy="-146.222" rx="4.00002" ry="4.00002"/>
<polygon fill="#07cc0a" stroke="#07cc0a" points="451.049,-109.777 445.35,-100.409 446.927,-106.948 442.804,-104.119 442.804,-104.119 442.804,-104.119 446.927,-106.948 440.258,-107.829 451.049,-109.777 451.049,-109.777"/>
</g>
<!-- Work&#45;&gt;Rating -->
<g id="edge8" class="edge"><title>Work&#45;&gt;Rating</title>
<path fill="none" stroke="#be3277" d="M398.809,-70.6683C385.667,-60.9849 369.511,-49.0805 356.021,-39.14"/>
<ellipse fill="none" stroke="#be3277" cx="402.151" cy="-73.1305" rx="4.00002" ry="4.00002"/>
<polygon fill="#be3277" stroke="#be3277" points="355.649,-38.8664 350.268,-29.3116 351.624,-35.9004 347.599,-32.9344 347.599,-32.9344 347.599,-32.9344 351.624,-35.9004 344.929,-36.5572 355.649,-38.8664 355.649,-38.8664"/>
</g>
<!-- Impression -->
<g id="node13" class="node"><title>Impression</title>
<ellipse fill="none" stroke="black" cx="429.688" cy="-18" rx="49.3119" ry="18"/>
<text text-anchor="middle" x="429.688" y="-13.8" font-family="Times,serif" font-size="14.00">Impression</text>
</g>
<!-- Work&#45;&gt;Impression -->
<g id="edge7" class="edge"><title>Work&#45;&gt;Impression</title>
<path fill="none" stroke="#1dd594" d="M425.861,-63.6398C426.339,-58.0629 426.848,-52.1319 427.333,-46.4761"/>
<ellipse fill="none" stroke="#1dd594" cx="425.513" cy="-67.7112" rx="4" ry="4"/>
<polygon fill="#1dd594" stroke="#1dd594" points="427.368,-46.0678 432.705,-36.4887 427.795,-41.0861 428.222,-36.1043 428.222,-36.1043 428.222,-36.1043 427.795,-41.0861 423.738,-35.72 427.368,-46.0678 427.368,-46.0678"/>
</g>
<!-- WorkCategory&#45;&gt;Work -->
<g id="edge9" class="edge"><title>WorkCategory&#45;&gt;Work</title>
<path fill="none" stroke="#95cb3b" d="M420.499,-135.64C420.898,-130.063 421.321,-124.132 421.725,-118.476"/>
<ellipse fill="none" stroke="#95cb3b" cx="420.209" cy="-139.707" rx="4" ry="4"/>
<polygon fill="#95cb3b" stroke="#95cb3b" points="421.753,-118.079 426.955,-108.425 422.11,-113.092 422.466,-108.104 422.466,-108.104 422.466,-108.104 422.11,-113.092 417.977,-107.784 421.753,-118.079 421.753,-118.079"/>
</g>
</g>
</svg>
